<svg width="52" height="52" viewBox="0 0 52 52" fill="none" xmlns="http://www.w3.org/2000/svg">
<rect width="52" height="52" rx="26" fill="#97BBFF"/>
<path d="M32 16L36 20M16 36L17.2764 31.3199C17.3597 31.0145 17.4013 30.8619 17.4652 30.7195C17.522 30.5931 17.5917 30.4729 17.6733 30.3609C17.7652 30.2348 17.8771 30.1229 18.1009 29.8991L28.4343 19.5657C28.6323 19.3677 28.7313 19.2687 28.8455 19.2316C28.9459 19.1989 29.0541 19.1989 29.1545 19.2316C29.2687 19.2687 29.3677 19.3677 29.5657 19.5657L32.4343 22.4343C32.6323 22.6323 32.7313 22.7313 32.7684 22.8455C32.8011 22.9459 32.8011 23.0541 32.7684 23.1545C32.7313 23.2687 32.6323 23.3677 32.4343 23.5657L22.1009 33.8991C21.8771 34.1229 21.7652 34.2348 21.6391 34.3267C21.5271 34.4083 21.4069 34.478 21.2805 34.5348C21.1381 34.5987 20.9855 34.6403 20.6801 34.7236L16 36Z" stroke="white" stroke-width="2" stroke-linecap="round" stroke-linejoin="round"/>
</svg>
